<?xml version="1.0" encoding="UTF-8"?>
<svg width="56px" height="56px" viewBox="0 0 56 56" version="1.1" xmlns="http://www.w3.org/2000/svg" xmlns:xlink="http://www.w3.org/1999/xlink">
    <!-- Generator: Sketch 57 (83077) - https://sketch.com -->
    <title>域名统计_slice</title>
    <desc>Created with Sketch.</desc>
    <g id="空探5.0" stroke="none" stroke-width="1" fill="none" fill-rule="evenodd">
        <g id="画板" transform="translate(-289.000000, -213.000000)">
            <g id="域名统计" transform="translate(289.000000, 213.000000)">
                <rect id="矩形备份-14" fill="#F0F7FF" x="0" y="0" width="56" height="56" rx="4"></rect>
                <g id="数据统计-data-statistics" transform="translate(13.000000, 13.000000)" fill-rule="nonzero">
                    <rect id="矩形" fill="#000000" opacity="0" x="0" y="0" width="30" height="30"></rect>
                    <path d="M24.2519531,21.7236328 L5.74804688,21.7236328 C4.22753906,21.7236328 2.98828125,20.484375 2.98828125,18.9638672 L2.98828125,7.40039062 C2.98828125,5.87988281 4.22753906,4.640625 5.74804688,4.640625 L24.2519531,4.640625 C25.7724609,4.640625 27.0117188,5.87988281 27.0117188,7.40039062 L27.0117188,18.9638672 C27.0117188,20.484375 25.7724609,21.7236328 24.2519531,21.7236328 Z M5.74804688,6.69140625 C5.35839844,6.69140625 5.0390625,7.01074219 5.0390625,7.40039062 L5.0390625,18.9638672 C5.0390625,19.3535156 5.35839844,19.6728516 5.74804688,19.6728516 L24.2519531,19.6728516 C24.6416016,19.6728516 24.9609375,19.3535156 24.9609375,18.9638672 L24.9609375,7.40039062 C24.9609375,7.01074219 24.6416016,6.69140625 24.2519531,6.69140625 L5.74804688,6.69140625 Z M21.515625,25.3623047 L8.484375,25.3623047 C7.91894531,25.3623047 7.45898438,24.9023437 7.45898438,24.3369141 C7.45898438,23.7714844 7.91894531,23.3115234 8.484375,23.3115234 L21.515625,23.3115234 C22.0810547,23.3115234 22.5410156,23.7714844 22.5410156,24.3369141 C22.5410156,24.9023437 22.0810547,25.3623047 21.515625,25.3623047 L21.515625,25.3623047 Z" id="形状" stroke="#FFFFFF" stroke-width="0.2" fill="#1890FF"></path>
                    <path d="M8.27050781,16.4501953 C8.00683594,16.4501953 7.74609375,16.3505859 7.546875,16.1484375 C7.14550781,15.7470703 7.14550781,15.0996094 7.546875,14.6982422 L12.0322266,10.2128906 C12.4335938,9.81152344 13.0810547,9.81152344 13.4824219,10.2128906 L17.2441406,13.9746094 L21.0058594,10.2158203 C21.4072266,9.81445312 22.0546875,9.81445312 22.4560547,10.2158203 C22.8574219,10.6171875 22.8574219,11.2646484 22.4560547,11.6660156 L17.9677734,16.1484375 C17.5664062,16.5498047 16.9189453,16.5498047 16.5175781,16.1484375 L12.7558594,12.3896484 L8.99414062,16.1484375 C8.79492187,16.3505859 8.53417969,16.4501953 8.27050781,16.4501953 Z" id="路径" stroke="#F0F7FF" stroke-width="0.2" fill="#1890FF"></path>
                    <path d="M21.7294922,16.4443359 C21.1640625,16.4443359 20.7041016,15.984375 20.7041016,15.4189453 L20.7041016,11.9707031 L17.2558594,11.9707031 C16.6904297,11.9707031 16.2304688,11.5107422 16.2304688,10.9453125 C16.2304688,10.3798828 16.6904297,9.91992187 17.2558594,9.91992187 L21.7294922,9.91992187 C22.2949219,9.91992187 22.7548828,10.3798828 22.7548828,10.9453125 L22.7548828,15.4189453 C22.7548828,15.984375 22.2949219,16.4443359 21.7294922,16.4443359 Z" id="路径" stroke="#F0F7FF" stroke-width="0.2" fill="#1890FF"></path>
                </g>
            </g>
        </g>
    </g>
</svg>