<?xml version="1.0" encoding="UTF-8"?>
<svg width="56px" height="56px" viewBox="0 0 56 56" version="1.1" xmlns="http://www.w3.org/2000/svg" xmlns:xlink="http://www.w3.org/1999/xlink">
    <!-- Generator: Sketch 57 (83077) - https://sketch.com -->
    <title>已验证poc__slice</title>
    <desc>Created with Sketch.</desc>
    <g id="空探5.0" stroke="none" stroke-width="1" fill="none" fill-rule="evenodd">
        <g id="画板" transform="translate(-289.000000, -310.000000)">
            <g id="已验证PoC-" transform="translate(289.000000, 310.000000)">
                <g id="编组-3备份" fill="#F0F7FF">
                    <rect id="矩形备份" x="0" y="0" width="56" height="56" rx="4"></rect>
                </g>
                <g id="验证" transform="translate(16.000000, 16.000000)" fill-rule="nonzero">
                    <rect id="矩形" fill="#000000" opacity="0" x="0" y="0" width="24" height="24"></rect>
                    <path d="M2.25,7.5 C2.66421356,7.5 3,7.16421356 3,6.75 L3,3 L6.75,3 C7.16421356,3 7.5,2.66421356 7.5,2.25 C7.5,1.83578644 7.16421356,1.5 6.75,1.5 L2.25,1.5 C1.83578644,1.5 1.5,1.83578644 1.5,2.25 L1.5,6.75 C1.5,7.16421356 1.83578644,7.5 2.25,7.5 Z M17.25,1.5 C16.8357864,1.5 16.5,1.83578644 16.5,2.25 C16.5,2.66421356 16.8357864,3 17.25,3 L21,3 L21,6.75 C21,7.16421356 21.3357864,7.5 21.75,7.5 C22.1642136,7.5 22.5,7.16421356 22.5,6.75 L22.5,2.25 C22.5,1.83578644 22.1642136,1.5 21.75,1.5 L17.25,1.5 Z M21.75,22.5 C22.1642136,22.5 22.5,22.1642136 22.5,21.75 L22.5,17.25 C22.5,16.8357864 22.1642136,16.5 21.75,16.5 C21.3357864,16.5 21,16.8357864 21,17.25 L21,21 L17.25,21 C16.8357864,21 16.5,21.3357864 16.5,21.75 C16.5,22.1642136 16.8357864,22.5 17.25,22.5 L21.75,22.5 Z M2.25,16.5 C1.83578644,16.5 1.5,16.8357864 1.5,17.25 L1.5,21.75 C1.5,22.1642136 1.83578644,22.5 2.25,22.5 L6.75,22.5 C7.16421356,22.5 7.5,22.1642136 7.5,21.75 C7.5,21.3357864 7.16421356,21 6.75,21 L3,21 L3,17.25 C3,16.8357864 2.66421356,16.5 2.25,16.5 Z M23.25,11.25 L0.75,11.25 C0.335786438,11.25 0,11.5857864 0,12 C0,12.4142136 0.335786438,12.75 0.75,12.75 L23.25,12.75 C23.6642136,12.75 24,12.4142136 24,12 C24,11.5857864 23.6642136,11.25 23.25,11.25 Z" id="形状" stroke="#1890FF" stroke-width="0.3" fill="#1890FF"></path>
                </g>
            </g>
        </g>
    </g>
</svg>