<?xml version="1.0" encoding="UTF-8"?>
<svg width="56px" height="56px" viewBox="0 0 56 56" version="1.1" xmlns="http://www.w3.org/2000/svg" xmlns:xlink="http://www.w3.org/1999/xlink">
    <!-- Generator: Sketch 57 (83077) - https://sketch.com -->
    <title>编组 11</title>
    <desc>Created with Sketch.</desc>
    <g id="空探5.0" stroke="none" stroke-width="1" fill="none" fill-rule="evenodd">
        <g id="搜索详情页定稿备份-3" transform="translate(-786.000000, -213.000000)">
            <g id="编组-11" transform="translate(786.000000, 213.000000)">
                <g id="端口数量" fill="#F0F7FF">
                    <rect id="矩形" x="0" y="0" width="56" height="56" rx="4"></rect>
                </g>
                <g id="port7" transform="translate(14.000000, 14.000000)" fill-rule="nonzero">
                    <rect id="矩形" fill="#000000" opacity="0" x="0" y="0" width="28" height="28"></rect>
                    <path d="M17.4654809,1.1902473 C17.6507776,1.25171961 17.7293748,1.37785655 17.7277108,1.59523005 L16.6920735,5.50789277 C16.6296454,5.69329927 16.5036483,5.7720625 16.2837607,5.76952064 C16.0983703,5.70803673 16.0198125,5.58186451 16.0214767,5.36408245 L17.0545,1.467375 C17.0545,1.25979467 17.261275,1.12204286 17.4654809,1.1902473 Z M17.4654809,1.1902473 C17.4654989,1.19025332 17.4655169,1.19025933 17.4655349,1.19026535 L17.4654268,1.19022936 C17.4654448,1.19023534 17.4654628,1.19024132 17.4654809,1.1902473 Z M26.8074714,10.5283893 L26.8101962,10.5349747 C26.8733056,10.7247846 26.7635974,10.8714339 26.545855,10.9442733 L22.6394099,11.9780471 C22.4492156,12.0416057 22.302383,11.9316209 22.2309288,11.7167128 C22.1678194,11.5269029 22.2775276,11.3802536 22.49527,11.3074142 L26.4175625,10.2710625 C26.5916938,10.2710625 26.7308914,10.3752294 26.8074714,10.5283893 Z M23.4065846,23.4062021 C23.3444962,23.4704718 23.2589548,23.5067843 23.1695625,23.5067843 C23.0798157,23.5067843 22.9939506,23.4701832 22.9325169,23.4061651 L20.1169022,20.5900849 C20.0515736,20.528329 20.0145566,20.4423978 20.0145566,20.3525 C20.0145566,20.2626022 20.0515736,20.176671 20.1151432,20.1166624 C20.1771402,20.0519424 20.2628769,20.0153452 20.3525,20.0153452 C20.4421231,20.0153452 20.5278598,20.0519424 20.5891053,20.1158947 L23.4053014,22.9321114 C23.4702397,22.9939784 23.5070341,23.0797233 23.5071318,23.1694147 C23.5072287,23.2587514 23.4709099,23.3442522 23.4065844,23.4062023 Z M10.5348844,26.8097287 C10.3498112,26.7483044 10.2710629,26.6218966 10.2727267,26.4052075 L11.3083279,22.4926526 C11.3703143,22.3071629 11.4967864,22.2279375 11.7168928,22.2305515 C11.9021984,22.2929456 11.980625,22.4187874 11.9789608,22.6359175 L10.9459373,26.5327519 C10.9454104,26.7403737 10.7385387,26.8783892 10.5348844,26.8097287 Z M1.28362806,17.4301838 C1.28397953,17.4312903 1.28433955,17.4323993 1.28470814,17.4335107 L1.28200534,17.4269574 C1.28254267,17.4280362 1.28308358,17.4291116 1.28362806,17.4301838 Z M1.19249466,17.4715426 L1.18979186,17.4649893 C1.12677172,17.2749667 1.23598979,17.1292501 1.45414495,17.0557267 L5.36069822,16.0219169 C5.55057167,15.9589462 5.69682669,16.0687418 5.76908314,16.2833232 C5.83220037,16.4736385 5.72227419,16.6203928 5.50429255,16.6925858 L1.582,17.7289375 C1.40773001,17.7289375 1.26893463,17.625006 1.19249466,17.4715426 Z M4.59382239,4.59426027 C4.65555756,4.52981998 4.74094218,4.49336077 4.83021875,4.49336077 C4.91991693,4.49336077 5.00568632,4.53016515 5.06660534,4.59426966 L7.88366784,7.41133216 C8.01826779,7.54593211 8.01826779,7.7500173 7.88360043,7.88417262 C7.74886291,8.01839783 7.54483121,8.01855322 7.41089466,7.88410534 L4.59473761,5.06792567 C4.52972765,5.00612382 4.49292327,4.92035443 4.49292327,4.83065625 C4.49292327,4.74137968 4.52938248,4.65599506 4.59382277,4.59425989 Z M8.40658326,8.40714815 L6.33185808,16.0340224 L11.917216,21.6556494 L19.5853994,19.621591 L21.6677044,11.9664151 L16.0823491,6.3447874 L8.40658326,8.40714815 Z M16.6723982,5.22019378 L16.6800441,5.22645843 L22.7735428,11.3203947 C22.9612126,11.5080644 23.0198813,11.6989334 22.9592839,11.943612 L20.7162706,20.2824893 C20.6541465,20.46981 20.47038,20.6532969 20.2793002,20.7175337 L11.9464003,22.9588837 C11.7483762,23.0247242 11.5001355,22.9537211 11.3203934,22.7739791 L5.22641238,16.6795605 C5.03863635,16.4913079 4.97981698,16.3003127 5.04115392,16.0563867 L7.28417881,7.71834974 C7.34646514,7.53101527 7.53101527,7.34646514 7.72113796,7.28334108 L16.07025,5.0394375 C16.3024575,5.0394375 16.4854465,5.09571708 16.6723982,5.22019378 Z M15.7702536,7.37969598 C14.8142225,7.14113274 14.233442,6.12928589 14.5271433,5.18917331 C14.8290572,4.22129989 15.7902678,3.65920215 16.7136676,3.94848745 C17.6695319,4.18699923 18.2501041,5.1987233 17.9575723,6.13624092 C17.7246987,7.06862274 16.7317777,7.62029668 15.7702536,7.37969598 Z M20.6198706,12.2302001 L20.6198638,12.230173 C20.3832644,11.2824233 20.9180313,10.3379352 21.8637482,10.0424304 C22.811805,9.80541619 23.7559703,10.3400183 24.0510628,11.2858461 C24.2885267,12.2334484 23.7539535,13.1780735 22.8080697,13.4736308 C21.8462014,13.7142122 20.8532067,13.1626573 20.6198706,12.2302001 Z M18.9222303,18.9217928 C18.2516441,19.592379 18.2516441,20.6515261 18.9237172,21.2676343 C19.5367651,21.9357973 20.5959296,21.9357973 21.2672201,21.264574 C21.9362309,20.6515261 21.9362309,19.592379 21.2641578,18.9202407 C20.6511099,18.2520777 19.5919454,18.2520777 18.9222303,18.9217928 Z M12.2297355,20.6203013 C13.1853639,20.8588676 13.7665565,21.8711756 13.4736294,22.8076376 C13.2345733,23.7629531 12.2226255,24.3439389 11.2858895,24.0515112 C10.3301751,23.8129234 9.74908666,22.8005484 10.042425,21.8642074 C10.2751927,20.9313629 11.2677521,20.3800343 12.2297409,20.6203027 Z M7.37969463,15.7698107 C7.61670881,16.7178675 7.08210671,17.6620328 6.13627891,17.9571253 C5.1886766,18.1945892 4.24405154,17.660016 3.94849287,16.7141268 C3.71144976,15.7659543 4.24619466,14.8209941 5.19197372,14.5259209 C6.15424385,14.2861541 7.14645316,14.8372883 7.37969327,15.7698053 Z M9.07820155,9.07821277 C9.72842625,8.42756964 9.71178038,7.42587564 9.07670964,6.73279152 C8.46366173,6.06420469 7.40450599,6.06420469 6.73277882,6.7358645 C6.06420681,7.34847487 6.06420681,8.40805863 6.7358645,9.07978368 C7.34847316,9.74835383 8.40805272,9.74835569 9.07820155,9.07821277 Z M17.091347,2.37792646 L17.0913159,2.37791798 C16.4419083,2.20039825 16.0682905,1.54681588 16.2512695,0.936628389 C16.4287893,0.287220764 17.0823716,-0.0863969911 17.6925591,0.0965820197 C18.341608,0.27400368 18.7147719,0.927289071 18.5322613,1.5390716 C18.34325,2.16831177 17.7243051,2.5505116 17.091347,2.37792646 Z M25.6228367,10.9102313 L25.6225172,10.9091131 C25.4395586,10.2393459 25.8130777,9.58568758 26.4625659,9.46783202 C27.1319261,9.28485813 27.7860311,9.65885595 27.9029805,10.3078784 C28.0858914,10.9770081 27.7117326,11.6312879 27.0641643,11.7483772 C26.475148,11.9257106 25.80606,11.5244032 25.6228367,10.9102313 Z M22.5446068,22.5426656 C22.5442215,22.5430507 22.5438364,22.543436 22.5434514,22.5438217 L22.5456847,22.5414328 C22.5453258,22.5418428 22.5449672,22.542253 22.5446089,22.5426632 Z M22.4704403,22.4755672 L22.4726736,22.4731783 C22.9520199,21.9929197 23.6741051,21.9929197 24.1534178,22.4731447 C24.632751,22.9524778 24.632751,23.6736101 24.1534178,24.1538553 C23.6740791,24.6331941 22.9520459,24.6331941 22.4726736,24.1538217 C22.0129035,23.6931768 22.0307314,22.9778869 22.4704403,22.4755672 Z M10.9086841,25.622082 C11.5581831,25.7996267 11.9317053,26.4532906 11.7483015,27.0633405 C11.5713346,27.7123688 10.9180743,28.0855995 10.3074494,27.9034203 C9.65777018,27.7259491 9.28436387,27.0724881 9.46643205,26.4663652 C9.58528244,25.812914 10.2390862,25.4391697 10.9086756,25.6220797 Z M2.37756776,17.0896583 L2.37792646,17.0909095 C2.56046473,17.7603709 2.18635912,18.4152336 1.53787161,18.532168 C0.868794778,18.7150644 0.21448563,18.3409703 0.0965735386,17.6920905 C-0.0859064341,17.0228429 0.287947566,16.3687051 0.935485246,16.2511592 C1.52498658,16.0748471 2.1928519,16.4756534 2.37756776,17.0896583 Z M5.52912218,5.52443283 L5.52685534,5.52685534 C5.04751662,6.00619405 4.32592088,6.00619405 3.84658216,5.52685534 C3.36724345,5.04751662 3.36724345,4.32592088 3.84658216,3.84658216 C4.32592088,3.36724345 5.04751662,3.36724345 5.52685534,3.84658216 C5.94850375,4.26823057 5.94850375,5.04533498 5.52912218,5.52443283 Z M15.0539228,10.0647701 L15.0546233,10.0649523 C17.2279327,10.6470413 18.5178857,12.881407 17.9346083,15.0541926 C17.3522316,17.2273552 15.1187206,18.5172158 12.9446646,17.9352888 C10.802155,17.3273869 9.54467004,15.1118841 10.1211727,12.9607131 C10.6976754,10.8095422 12.8945506,9.51978997 15.0539228,10.0647701 Z M17.0998741,13.7588127 C17.0996828,13.7588128 17.0994914,13.7588127 17.0993,13.7588125 L17.1004482,13.7588269 C17.1002568,13.7588223 17.1000655,13.7588175 17.0998742,13.7588127 Z M16.6833294,13.6113881 L16.7509178,13.5468322 L16.6997419,13.6360867 C16.694003,13.6280102 16.6885306,13.6197733 16.6833294,13.6113881 Z" id="形状" stroke="#1890FF" stroke-width="0.1" fill="#1890FF"></path>
                </g>
            </g>
        </g>
    </g>
</svg>