<?xml version="1.0" encoding="UTF-8"?>
<svg width="56px" height="56px" viewBox="0 0 56 56" version="1.1" xmlns="http://www.w3.org/2000/svg" xmlns:xlink="http://www.w3.org/1999/xlink">
    <!-- Generator: Sketch 57 (83077) - https://sketch.com -->
    <title>存在漏洞_slice</title>
    <desc>Created with Sketch.</desc>
    <g id="空探5.0" stroke="none" stroke-width="1" fill="none" fill-rule="evenodd">
        <g id="画板" transform="translate(-109.000000, -310.000000)">
            <g id="存在漏洞" transform="translate(109.000000, 310.000000)">
                <rect id="矩形备份" fill="#F0F7FF" x="0" y="0" width="56" height="56" rx="4"></rect>
                <g id="漏洞扫描" transform="translate(15.000000, 15.000000)" fill-rule="nonzero">
                    <rect id="矩形" fill="#000000" opacity="0" x="0" y="0" width="26" height="26"></rect>
                    <path d="M13,1.23809524 C6.1632381,1.23809524 0.619047609,6.78228571 0.619047609,13.6190476 C0.619047609,20.4558095 6.1632381,26 13,26 C19.8367619,26 25.3809524,20.4558095 25.3809524,13.6190476 C25.3809524,6.78228571 19.8367619,1.23809524 13,1.23809524 Z M18.4166779,13.6041905 C18.4195225,15.0561973 17.8412765,16.448981 16.8108571,17.472 C16.1362121,16.7002381 15.0576755,16.4205428 14.0929972,16.7671813 C13.128319,17.1138198 12.4744715,18.0160139 12.4453333,19.0406667 C9.5393776,18.7701038 7.35941806,16.2629975 7.49517044,13.3476323 C7.63092282,10.432267 10.0344283,8.13858726 12.9529524,8.13923402 C14.21948,8.13768828 15.4468416,8.57818982 16.4233333,9.3847619 L13.754,12.0404762 C13.0511361,11.7040845 12.2105179,11.8731071 11.6922973,12.4550216 C11.1740767,13.036936 11.1031958,13.8914438 11.5184545,14.5507898 C11.9337132,15.2101358 12.7349935,15.515353 13.4836769,15.2993664 C14.2323602,15.0833797 14.7479405,14.3982632 14.7481905,13.6190476 C14.7481905,13.3714286 14.6961905,13.1262857 14.5946667,12.9009524 L17.2627619,10.2452381 C18.0130476,11.2035238 18.4191429,12.3871429 18.4166779,13.6041905 Z M13,24.2666667 C10.1766319,24.2669951 7.46880734,23.1455619 5.4723846,21.1491392 C3.47596186,19.1527165 2.35452871,16.4448919 2.35485707,13.6215238 C2.35485707,7.74428571 7.11904761,2.97141831 13,2.97141831 C15.6300117,2.96777261 18.1674321,3.94214204 20.1190476,5.70514285 L17.6861905,8.12809524 C16.3813223,7.00983674 14.7184782,6.39697876 13,6.40095239 C10.421121,6.40079944 8.03807306,7.77652717 6.7485894,10.0098764 C5.45910574,12.2432257 5.45910574,14.9948696 6.7485894,17.2282188 C8.03807306,19.4615681 10.421121,20.8372958 13,20.8371429 C13.0470476,20.8371429 13.0891429,20.8371429 13.1374286,20.8346667 C13.8139899,21.5414894 14.8416831,21.7867898 15.7645439,21.4617335 C16.6874047,21.1366773 17.3345132,20.301467 17.4187619,19.3266667 C18.9715238,18.1245616 19.9676008,16.3417953 20.1773775,14.3893303 C20.3871542,12.4368652 19.7925278,10.4831906 18.5305714,8.97866666 L20.9634286,6.55571429 C22.6939937,8.50137307 23.6492615,11.0151196 23.6476212,13.6190476 C23.6451429,19.5 18.8809524,24.2666667 13,24.2666667 L13,24.2666667 Z" id="形状" fill="#1890FF"></path>
                </g>
            </g>
        </g>
    </g>
</svg>